<?xml version="1.0" encoding="iso-8859-1"?>
<!-- Generator: Adobe Illustrator 27.5.0, SVG Export Plug-In . SVG Version: 6.00 Build 0)  -->
<svg version="1.1" id="Capa_1" xmlns="http://www.w3.org/2000/svg" xmlns:xlink="http://www.w3.org/1999/xlink" x="0px" y="0px"
	 viewBox="0 0 510.004 510.004" style="enable-background:new 0 0 510.004 510.004;" xml:space="preserve">
<g>
	<g>
		<path style="fill:#67CCD1;" d="M471.893,348.697l-11.796,11.796l-79.906-79.906l37.157-37.157c0,0-3.846-50.729-51.922-98.805
			s-98.805-51.922-98.805-51.922l-37.157,37.157l-79.907-79.907l11.796-11.796c18.961-18.961,44.985-29.144,71.777-28.028
			c45.799,1.907,118.306,16.963,184.067,82.724s80.818,138.268,82.724,184.067C501.037,303.712,490.855,329.736,471.893,348.697z"/>
	</g>
	<g>
		<g>
			<g>
				<path style="fill:#FDCB50;" d="M290.922,366.031c-0.03,0-0.059,0-0.088,0c-5.522-0.048-9.961-4.564-9.913-10.086
					c0.075-8.738,0.153-18.576,0.225-28.777h-55.785c-3.538,0-6.812-1.869-8.611-4.916c-1.798-3.047-1.854-6.816-0.145-9.914
					c7.383-13.384,44.592-80.608,52.01-89.711c8.072-9.901,16.615-8.596,19.914-7.574c6.996,2.166,11.975,9.073,12.686,17.596
					c0.395,4.744,0.263,41.983,0.064,74.52h6.771c5.523,0,10,4.478,10,10c0,5.522-4.477,10-10,10h-6.904
					c-0.103,14.343-0.197,25.523-0.227,28.949C300.872,361.61,296.404,366.031,290.922,366.031z M242.339,307.168h38.937
					c0.173-28.752,0.271-56.647,0.135-67.947C274.116,250.677,256.537,281.676,242.339,307.168z"/>
			</g>
			<g>
				<path style="fill:#FDCB50;" d="M149.055,367.341c-25.245,0-27.056-0.603-28.381-1.046c-3.395-1.131-5.927-3.685-6.948-7.005
					c-1.8-5.852,0.628-9.031,8.674-19.565c6.709-8.784,19.196-25.134,40.113-55.022c5.563-7.948,13.084-18.289,12.836-28.527
					c-0.31-12.798-10.817-23.113-23.688-23.113c-11.299,0-21.077,8.029-23.249,19.091c-1.064,5.419-6.321,8.95-11.74,7.886
					c-5.42-1.064-8.95-6.32-7.885-11.739c4.01-20.418,22.042-35.237,42.874-35.237c24.093,0,43.694,19.601,43.694,43.694
					c0,2.4-0.366,5.009-0.909,7.353c-2.265,9.771-7.497,20.558-15.548,32.062c-17.975,25.682-29.809,41.5-37.131,51.136
					c12.954,0.04,31.62-0.073,49.044-0.291c0.042-0.001,0.085-0.001,0.128-0.001c5.465,0,9.928,4.395,9.997,9.874
					c0.069,5.522-4.351,10.056-9.874,10.125C172.514,367.249,158.975,367.341,149.055,367.341z M125.602,346.985
					C125.602,346.985,125.602,346.985,125.602,346.985C125.602,346.985,125.602,346.985,125.602,346.985z"/>
			</g>
		</g>
	</g>
	<g>
		<path style="fill:#052A75;" d="M460.098,370.493c-2.652,0-5.196-1.054-7.071-2.929l-79.907-79.906
			c-1.876-1.876-2.929-4.419-2.929-7.071c0-2.652,1.054-5.195,2.929-7.071l33.642-33.642c-2.199-12.705-11.63-51.402-48.407-88.179
			c-36.76-36.761-75.439-46.2-88.179-48.405l-33.64,33.641c-3.905,3.904-10.237,3.904-14.142,0l-79.907-79.906
			c-1.876-1.876-2.929-4.419-2.929-7.071c0-2.652,1.054-5.195,2.929-7.071l11.796-11.796c20.896-20.896,49.788-32.17,79.264-30.948
			c50.019,2.083,123.71,18.632,190.722,85.645c67.013,67.014,83.562,140.703,85.645,190.722
			c1.228,29.477-10.055,58.369-30.948,79.265l-11.795,11.796C465.294,369.439,462.75,370.493,460.098,370.493z M394.333,280.586
			l65.765,65.764l4.724-4.725h0c16.952-16.951,26.104-40.384,25.108-64.29c-1.935-46.463-17.35-114.957-79.804-177.411
			C347.674,37.47,279.178,22.054,232.714,20.12c-23.887-0.997-47.337,8.156-64.29,25.108l-4.725,4.725l65.765,65.764L259.55,85.63
			c2.061-2.062,4.915-3.117,7.827-2.9c2.222,0.169,55,4.702,105.12,54.822c50.12,50.12,54.654,102.898,54.822,105.121
			c0.221,2.907-0.839,5.766-2.9,7.827L394.333,280.586z"/>
	</g>
	<path style="fill:#FDCB50;" d="M428.971,444.541c0.001-0.014-7.421-47.783-7.428-47.802c-0.334-2.026-1.283-3.951-2.735-5.408
		c-1.943-2.009-4.756-3.115-7.546-2.994c-0.188-0.026-48.238,3.111-48.455,3.105c-5.512,0.354-9.693,5.108-9.339,10.62
		c0.34,5.294,4.739,9.359,9.97,9.359c0.215,0,0.433-0.007,0.65-0.021l27.488-1.765C271.703,564.889,20.165,479.201,20.006,282.532
		c-0.001-71.732,36.28-137.413,97.05-175.693c10.889-7.427,0.945-23.558-10.66-16.922C40.962,130.582-0.54,205.344,0.005,282.535
		C1.842,498.031,270.04,591.464,405.561,424.127l3.648,23.484C411.805,460.674,430.485,457.696,428.971,444.541z"/>
</g>
<g>
</g>
<g>
</g>
<g>
</g>
<g>
</g>
<g>
</g>
<g>
</g>
<g>
</g>
<g>
</g>
<g>
</g>
<g>
</g>
<g>
</g>
<g>
</g>
<g>
</g>
<g>
</g>
<g>
</g>
</svg>
