<?xml version="1.0" encoding="iso-8859-1"?>
<!-- Generator: Adobe Illustrator 27.2.0, SVG Export Plug-In . SVG Version: 6.00 Build 0)  -->
<svg version="1.1" id="Capa_1" xmlns="http://www.w3.org/2000/svg" xmlns:xlink="http://www.w3.org/1999/xlink" x="0px" y="0px"
	 viewBox="0 0 510 510" style="enable-background:new 0 0 510 510;" xml:space="preserve">
<g>
	<g id="XMLID_1044_">
		<path id="XMLID_1260_" style="fill:#67CCD1;" d="M260.22,459.639H458.74c22.788,0,41.26-18.473,41.26-41.26V201.825
			c0-22.788-18.473-41.26-41.26-41.26H263.295c-22.788,0-41.261,18.473-41.261,41.261v95.88l0.345,124.197
			C222.437,442.76,239.362,459.639,260.22,459.639z"/>
		<path style="fill:#27A2CC;" d="M295.34,291.978c0-46.087,7.933-90.32,22.502-131.414h-54.547
			c-22.788,0-41.261,18.473-41.261,41.261v95.88l0.345,124.197c0.058,20.858,16.983,37.736,37.841,37.736h72.563
			C308.772,408.781,295.34,351.95,295.34,291.978z"/>
		<path id="XMLID_1120_" style="fill:#6864F7;" d="M283.413,500L283.413,500c-11.111,0-20.118-9.007-20.118-20.118v-20.243h40.236
			v20.243C303.531,490.993,294.524,500,283.413,500z"/>
		<path id="XMLID_1208_" style="fill:#FD6050;" d="M186.309,73.509L186.309,73.509c-13.1-13.1-34.338-13.1-47.438,0
			c-13.1-13.1-34.338-13.1-47.438,0h0c-13.1,13.1-13.1,34.338,0,47.438l42.132,42.132c2.931,2.931,7.682,2.931,10.612,0
			l42.132-42.132C199.409,107.848,199.409,86.609,186.309,73.509z"/>
		<path id="XMLID_1284_" style="fill:#6864F7;" d="M438.621,500L438.621,500c-11.111,0-20.118-9.007-20.118-20.118v-20.243h40.236
			v20.243C458.74,490.993,449.732,500,438.621,500z"/>
		<path id="XMLID_1089_" style="fill:#BC9AF4;" d="M227.939,301.809H45.356C25.829,301.809,10,317.638,10,337.165v127.48
			C10,484.171,25.829,500,45.356,500h182.583c19.526,0,35.356-15.829,35.356-35.356v-127.48
			C263.295,317.638,247.465,301.809,227.939,301.809z"/>
		<rect id="XMLID_1090_" x="49.837" y="301.809" style="fill:#6864F7;" width="39.837" height="198.191"/>
		
			<rect id="XMLID_1105_" x="183.62" y="301.809" transform="matrix(-1 -1.224647e-16 1.224647e-16 -1 407.0774 801.8089)" style="fill:#6864F7;" width="39.837" height="198.191"/>
		<path id="XMLID_00000080894993156809840720000010286545489509360802_" style="fill:#FD7DA0;" d="M409.002,293.7L409.002,293.7
			c-13.1-13.1-34.338-13.1-47.438,0c-13.1-13.1-34.338-13.1-47.438,0h0c-13.1,13.1-13.1,34.338,0,47.438l42.132,42.132
			c2.931,2.931,7.682,2.931,10.612,0l42.132-42.132C422.102,328.038,422.102,306.8,409.002,293.7z"/>
	</g>
	<g id="XMLID_00000183246018246326922590000008770480099800867988_">
		<path style="fill:#052A75;" d="M138.871,175.277c-4.676,0-9.071-1.821-12.377-5.128c0,0-42.132-42.131-42.132-42.131
			c-16.891-16.208-16.893-45.372,0-61.581c13.932-14.446,37.96-16.884,54.517-5.738c16.868-10.956,39.718-9.043,54.5,5.738h0.001
			c16.977,16.978,16.977,44.602,0,61.581l-42.132,42.132C147.942,173.456,143.547,175.277,138.871,175.277z M115.152,73.696
			c-6.029,0-12.058,2.295-16.647,6.885c-9.18,9.18-9.18,24.116,0,33.295l40.367,40.367c0,0,40.366-40.367,40.366-40.367
			c9.132-8.763,9.133-24.532,0-33.295c-9.179-9.18-24.116-9.18-33.296,0c-3.906,3.905-10.236,3.905-14.143,0
			C127.21,75.991,121.182,73.696,115.152,73.696z"/>
		<path style="fill:#052A75;" d="M458.739,150.565h-1.582V60.188c0.058-0.585,0.058-1.194,0-1.779V42.517
			C457.157,19.073,438.084,0,414.641,0H308.117c-23.443,0-42.517,19.073-42.517,42.517v108.048
			c-29.046-1.213-53.639,22.121-53.566,51.26c0,0,0,89.984,0,89.984H193.62v-19.383c0-15.123-12.304-27.426-27.427-27.426h-59.092
			c-15.123,0-27.427,12.303-27.427,27.426v19.383H45.355C20.347,291.809,0,312.155,0,337.165v127.48
			C0,489.654,20.347,510,45.355,510h182.584c12.045,0,22.999-4.728,31.129-12.415c17.017,23.311,54.268,11.523,54.463-17.704
			c0,0,0-10.243,0-10.243h94.972c0,0,0,10.243,0,10.243c1.656,39.96,58.59,39.941,60.236,0c0,0,0-11.229,0-11.229
			C492.233,463.987,510,443.222,510,418.378V201.825C510,173.56,487.005,150.565,458.739,150.565z M308.117,20h106.523
			c12.416,0,22.517,10.101,22.517,22.517v6.782H285.601v-6.782C285.601,30.101,295.701,20,308.117,20z M285.601,69.299h151.557
			v81.266H285.601V69.299z M99.675,272.426c0-4.095,3.332-7.426,7.427-7.426h59.092c4.095,0,7.427,3.332,7.427,7.426v19.383H99.675
			V272.426z M227.939,490H45.355C31.374,490,20,478.625,20,464.645v-127.48c0-13.981,11.374-25.355,25.355-25.355h44.319h93.945
			h44.319c13.981,0,25.355,11.374,25.355,25.355v122.474v5.006C253.295,478.625,241.921,490,227.939,490z M293.531,479.882
			c-0.557,13.425-19.683,13.417-20.236,0c0,0,0-10.243,0-10.243h20.236V479.882z M448.739,479.882
			c-0.557,13.425-19.683,13.417-20.236,0c0,0,0-10.243,0-10.243h20.236V479.882z M490,418.378c0,17.237-14.023,31.26-31.261,31.26
			h-40.236c-22.165,0-125.224,0-145.208,0V337.165c0-23.629-18.164-43.084-41.261-45.162v-90.178
			c0-17.237,14.023-31.26,31.261-31.26h12.306h171.557h11.582c17.237,0,31.261,14.023,31.261,31.26V418.378z"/>
	</g>
</g>
<g>
</g>
<g>
</g>
<g>
</g>
<g>
</g>
<g>
</g>
<g>
</g>
<g>
</g>
<g>
</g>
<g>
</g>
<g>
</g>
<g>
</g>
<g>
</g>
<g>
</g>
<g>
</g>
<g>
</g>
</svg>
